<?xml version="1.0" encoding="utf-8"?>
<svg xmlns="http://www.w3.org/2000/svg" xmlns:xlink="http://www.w3.org/1999/xlink" style="margin: auto; background: none; display: block; shape-rendering: auto;" width="200px" height="200px" viewBox="0 0 100 100" preserveAspectRatio="xMidYMid">
<g transform="rotate(0 50 50)">
  <rect x="47" y="24" rx="3" ry="6" width="6" height="12" fill="#f2b50a">
    <animate attributeName="opacity" values="1;0" keyTimes="0;1" dur="0.9090909090909091s" begin="-0.8333333333333333s" repeatCount="indefinite"></animate>
  </rect>
</g><g transform="rotate(30 50 50)">
  <rect x="47" y="24" rx="3" ry="6" width="6" height="12" fill="#f2b50a">
    <animate attributeName="opacity" values="1;0" keyTimes="0;1" dur="0.9090909090909091s" begin="-0.7575757575757576s" repeatCount="indefinite"></animate>
  </rect>
</g><g transform="rotate(60 50 50)">
  <rect x="47" y="24" rx="3" ry="6" width="6" height="12" fill="#f2b50a">
    <animate attributeName="opacity" values="1;0" keyTimes="0;1" dur="0.9090909090909091s" begin="-0.6818181818181818s" repeatCount="indefinite"></animate>
  </rect>
</g><g transform="rotate(90 50 50)">
  <rect x="47" y="24" rx="3" ry="6" width="6" height="12" fill="#f2b50a">
    <animate attributeName="opacity" values="1;0" keyTimes="0;1" dur="0.9090909090909091s" begin="-0.606060606060606s" repeatCount="indefinite"></animate>
  </rect>
</g><g transform="rotate(120 50 50)">
  <rect x="47" y="24" rx="3" ry="6" width="6" height="12" fill="#f2b50a">
    <animate attributeName="opacity" values="1;0" keyTimes="0;1" dur="0.9090909090909091s" begin="-0.5303030303030303s" repeatCount="indefinite"></animate>
  </rect>
</g><g transform="rotate(150 50 50)">
  <rect x="47" y="24" rx="3" ry="6" width="6" height="12" fill="#f2b50a">
    <animate attributeName="opacity" values="1;0" keyTimes="0;1" dur="0.9090909090909091s" begin="-0.45454545454545453s" repeatCount="indefinite"></animate>
  </rect>
</g><g transform="rotate(180 50 50)">
  <rect x="47" y="24" rx="3" ry="6" width="6" height="12" fill="#f2b50a">
    <animate attributeName="opacity" values="1;0" keyTimes="0;1" dur="0.9090909090909091s" begin="-0.3787878787878788s" repeatCount="indefinite"></animate>
  </rect>
</g><g transform="rotate(210 50 50)">
  <rect x="47" y="24" rx="3" ry="6" width="6" height="12" fill="#f2b50a">
    <animate attributeName="opacity" values="1;0" keyTimes="0;1" dur="0.9090909090909091s" begin="-0.303030303030303s" repeatCount="indefinite"></animate>
  </rect>
</g><g transform="rotate(240 50 50)">
  <rect x="47" y="24" rx="3" ry="6" width="6" height="12" fill="#f2b50a">
    <animate attributeName="opacity" values="1;0" keyTimes="0;1" dur="0.9090909090909091s" begin="-0.22727272727272727s" repeatCount="indefinite"></animate>
  </rect>
</g><g transform="rotate(270 50 50)">
  <rect x="47" y="24" rx="3" ry="6" width="6" height="12" fill="#f2b50a">
    <animate attributeName="opacity" values="1;0" keyTimes="0;1" dur="0.9090909090909091s" begin="-0.1515151515151515s" repeatCount="indefinite"></animate>
  </rect>
</g><g transform="rotate(300 50 50)">
  <rect x="47" y="24" rx="3" ry="6" width="6" height="12" fill="#f2b50a">
    <animate attributeName="opacity" values="1;0" keyTimes="0;1" dur="0.9090909090909091s" begin="-0.07575757575757575s" repeatCount="indefinite"></animate>
  </rect>
</g><g transform="rotate(330 50 50)">
  <rect x="47" y="24" rx="3" ry="6" width="6" height="12" fill="#f2b50a">
    <animate attributeName="opacity" values="1;0" keyTimes="0;1" dur="0.9090909090909091s" begin="0s" repeatCount="indefinite"></animate>
  </rect>
</g>
<!-- [ldio] generated by https://loading.io/ --></svg>